ply
format ascii 1.0
element vertex 89
property float x
property float y
property float z
element face 69
property list uchar int vertex_index
end_header
-0.280522 -0.588334 3.18973 
-0.259292 -0.586609 3.18767 
-0.257871 -0.417955 3.17837 
-0.26253 -0.268783 3.17288 
-0.242719 -0.269035 3.16711 
-0.363452 -0.138523 3.19469 
-0.509336 0.318166 3.22633 
-0.301053 -0.57965 3.19591 
-0.348019 -0.545373 3.21313 
-0.300642 -0.532785 3.19366 
-0.330668 -0.417588 3.19636 
-0.306201 -0.189452 3.17585 
0.296866 0.173865 3.0794 
0.0304783 0.229414 3.12453 
0.113487 -0.939084 3.23992 
-0.31063 -0.0410566 3.17204 
-0.511942 0.262058 3.23493 
-0.313101 0.26861 3.19094 
-0.34302 -0.927518 3.22888 
-0.278284 -0.017545 3.16305 
-0.211778 0.189301 3.18681 
-0.324352 0.337199 3.18307 
-0.244436 -0.920268 3.1981 
-0.178807 -0.920725 3.17969 
-0.0727423 0.128546 3.16759 
-0.250693 -0.457542 3.17719 
-0.12125 0.288413 3.14431 
-0.192904 0.270358 3.16516 
-0.31727 -0.712353 3.20532 
-0.332244 -0.48361 3.19876 
-0.32405 -0.529024 3.20383 
-0.345059 -0.740379 3.22206 
-0.304311 -0.43053 3.18836 
-0.39442 -0.631802 3.23717 
-0.368727 -0.617032 3.22757 
-0.257098 -0.552797 3.1863 
-0.248677 -0.15587 3.15994 
-0.179812 -0.731522 3.181 
-0.348137 -0.674714 3.21407 
-0.214079 -0.680621 3.18471 
-0.255335 -0.0385711 3.15615 
-0.616135 0.218682 3.27091 
-0.551504 0.246487 3.25087 
-0.319519 -0.759304 3.20996 
-0.232918 -0.557482 3.18021 
-0.350631 -0.498648 3.21213 
-0.252941 -0.47001 3.17881 
-0.2908 0.199787 3.20069 
-0.316321 0.222535 3.20624 
-0.299368 -0.622057 3.19602 
-0.305527 -0.308106 3.18615 
-0.370801 -0.54445 3.21775 
-0.271832 -0.471365 3.18061 
-0.216072 -0.430179 3.16494 
-0.261053 -0.30113 3.16806 
-0.214268 -0.680062 3.18657 
-0.172918 -0.606231 3.17989 
-0.216489 -0.482824 3.17298 
-0.202506 -0.359372 3.16278 
-0.326446 -0.347841 3.19074 
-0.344324 -0.144623 3.18984 
-0.96693 0.243273 3.36077 
-0.248736 -0.643718 3.18706 
-0.163956 -0.641579 3.18089 
-0.255739 -0.544942 3.18306 
-0.304628 -0.488207 3.19152 
-0.293275 -0.75041 3.20689 
-0.307319 -0.306222 3.18023 
-0.187816 -0.640132 3.18039 
-0.107066 -0.636068 3.18817 
-0.148927 -0.575518 3.17792 
-0.158593 -0.728767 3.18947 
-0.193268 -0.689123 3.1826 
-0.149858 -0.60716 3.18182 
-0.096645 -0.471154 3.1754 
-0.12994 -0.63804 3.18077 
-0.0651756 -0.519066 3.18687 
-0.128898 -0.694914 3.18444 
-0.0865018 -0.694966 3.19394 
-0.155288 -0.457435 3.17308 
-0.276014 -0.77659 3.20219 
-0.642922 0.182849 3.30565 
-0.258269 -1.01948 3.82529 
-0.138449 -0.989447 3.82454 
-0.317974 -0.848388 3.21652 
-0.896353 0.119596 3.4365 
-0.507936 0.199469 3.26175 
-2.20367 0.628575 3.75998 
-1.84824 0.577896 4.77398 
3 28 62 49 
3 62 28 55 
3 32 65 52 
3 65 32 29 
3 49 8 51 
3 8 49 7 
3 1 56 64 
3 56 1 62 
3 64 0 1 
3 0 64 7 
3 1 0 49 
3 2 53 58 
3 53 2 52 
3 32 59 10 
3 59 32 2 
3 53 52 57 
3 2 58 54 
3 0 7 49 
3 30 64 65 
3 64 30 7 
3 49 51 28 
3 8 7 30 
3 85 81 61 
3 81 85 60 
3 31 51 85 
3 51 31 28 
3 29 51 8 
3 51 29 10 
3 4 67 54 
3 67 4 60 
3 51 59 85 
3 59 51 10 
3 55 28 66 
3 1 49 62 
3 29 8 30 
3 32 52 2 
3 10 29 32 
3 29 30 65 
3 28 31 43 
3 28 43 66 
3 66 80 55 
3 80 66 43 
3 43 31 84 
3 82 31 85 
3 31 82 84 
3 65 64 52 
3 54 58 4 
3 57 52 64 
3 58 56 63 
3 56 58 53 
3 2 54 59 
3 55 80 63 
3 56 62 63 
3 56 53 57 
3 63 62 55 
3 64 56 57 
3 59 54 67 
3 85 59 60 
3 60 59 67 
3 60 4 86 
3 61 88 85 
3 88 61 87 
3 63 80 83 
3 83 80 84 
3 80 43 84 
3 61 81 86 
3 81 60 86 
3 84 82 83 
3 82 85 88 
