ply
format ascii 1.0
element vertex 89
property float x
property float y
property float z
element face 108
property list uchar int vertex_index
end_header
-0.280522 -0.588334 3.18973 
-0.259292 -0.586609 3.18767 
-0.257871 -0.417955 3.17837 
-0.26253 -0.268783 3.17288 
-0.242719 -0.269035 3.16711 
-0.363452 -0.138523 3.19469 
-0.509336 0.318166 3.22633 
-0.301053 -0.57965 3.19591 
-0.348019 -0.545373 3.21313 
-0.300642 -0.532785 3.19366 
-0.330668 -0.417588 3.19636 
-0.306201 -0.189452 3.17585 
0.296866 0.173865 3.0794 
0.0304783 0.229414 3.12453 
0.113487 -0.939084 3.23992 
-0.31063 -0.0410566 3.17204 
-0.511942 0.262058 3.23493 
-0.313101 0.26861 3.19094 
-0.34302 -0.927518 3.22888 
-0.278284 -0.017545 3.16305 
-0.211778 0.189301 3.18681 
-0.324352 0.337199 3.18307 
-0.244436 -0.920268 3.1981 
-0.178807 -0.920725 3.17969 
-0.0727423 0.128546 3.16759 
-0.250693 -0.457542 3.17719 
-0.12125 0.288413 3.14431 
-0.192904 0.270358 3.16516 
-0.31727 -0.712353 3.20532 
-0.332244 -0.48361 3.19876 
-0.32405 -0.529024 3.20383 
-0.345059 -0.740379 3.22206 
-0.304311 -0.43053 3.18836 
-0.39442 -0.631802 3.23717 
-0.368727 -0.617032 3.22757 
-0.257098 -0.552797 3.1863 
-0.248677 -0.15587 3.15994 
-0.179812 -0.731522 3.181 
-0.348137 -0.674714 3.21407 
-0.214079 -0.680621 3.18471 
-0.255335 -0.0385711 3.15615 
-0.616135 0.218682 3.27091 
-0.551504 0.246487 3.25087 
-0.319519 -0.759304 3.20996 
-0.232918 -0.557482 3.18021 
-0.350631 -0.498648 3.21213 
-0.252941 -0.47001 3.17881 
-0.2908 0.199787 3.20069 
-0.316321 0.222535 3.20624 
-0.299368 -0.622057 3.19602 
-0.305527 -0.308106 3.18615 
-0.370801 -0.54445 3.21775 
-0.271832 -0.471365 3.18061 
-0.216072 -0.430179 3.16494 
-0.261053 -0.30113 3.16806 
-0.214268 -0.680062 3.18657 
-0.172918 -0.606231 3.17989 
-0.216489 -0.482824 3.17298 
-0.202506 -0.359372 3.16278 
-0.326446 -0.347841 3.19074 
-0.344324 -0.144623 3.18984 
-0.96693 0.243273 3.36077 
-0.248736 -0.643718 3.18706 
-0.163956 -0.641579 3.18089 
-0.255739 -0.544942 3.18306 
-0.304628 -0.488207 3.19152 
-0.293275 -0.75041 3.20689 
-0.307319 -0.306222 3.18023 
-0.187816 -0.640132 3.18039 
-0.107066 -0.636068 3.18817 
-0.148927 -0.575518 3.17792 
-0.158593 -0.728767 3.18947 
-0.193268 -0.689123 3.1826 
-0.149858 -0.60716 3.18182 
-0.096645 -0.471154 3.1754 
-0.12994 -0.63804 3.18077 
-0.0651756 -0.519066 3.18687 
-0.128898 -0.694914 3.18444 
-0.0865018 -0.694966 3.19394 
-0.155288 -0.457435 3.17308 
-0.276014 -0.77659 3.20219 
-0.642922 0.182849 3.30565 
-0.258269 -1.01948 3.82529 
-0.138449 -0.989447 3.82454 
-0.317974 -0.848388 3.21652 
-0.896353 0.119596 3.4365 
-0.507936 0.199469 3.26175 
-2.20367 0.628575 3.75998 
-1.84824 0.577896 4.77398 
3 66 22 71 
3 22 66 18 
3 32 59 10 
3 59 32 2 
3 62 0 7 
3 0 62 1 
3 14 12 76 
3 7 64 9 
3 64 7 0 
3 0 1 64 
3 58 79 74 
3 79 58 53 
3 64 52 9 
3 52 64 57 
3 2 58 54 
3 58 2 53 
3 3 11 67 
3 11 3 4 
3 59 2 54 
3 53 2 25 
3 24 12 13 
3 12 24 74 
3 4 3 54 
3 59 54 67 
3 58 24 4 
3 24 58 74 
3 32 52 2 
3 52 32 65 
3 15 16 5 
3 16 15 19 
3 16 61 5 
3 61 16 6 
3 10 51 29 
3 51 10 59 
3 7 51 66 
3 51 7 8 
3 8 7 9 
3 51 61 18 
3 61 51 5 
3 29 32 10 
3 32 29 65 
3 8 9 29 
3 29 51 8 
3 67 54 3 
3 51 59 5 
3 5 11 60 
3 11 5 67 
3 11 4 19 
3 11 19 15 
3 11 15 60 
3 17 21 6 
3 21 17 27 
3 13 12 26 
3 13 26 24 
3 56 1 68 
3 1 56 64 
3 15 5 60 
3 17 19 20 
3 19 17 16 
3 6 16 17 
3 21 27 26 
3 18 23 22 
3 66 51 18 
3 19 4 24 
3 20 24 26 
3 24 20 19 
3 17 20 27 
3 20 26 27 
3 71 22 23 
3 1 62 68 
3 23 14 78 
3 64 56 70 
3 25 2 52 
3 52 57 25 
3 29 9 65 
3 9 52 65 
3 54 58 4 
3 53 25 57 
3 76 69 78 
3 69 76 70 
3 77 72 71 
3 72 77 63 
3 66 71 72 
3 70 56 73 
3 68 62 55 
3 73 75 69 
3 75 73 63 
3 64 70 57 
3 53 57 79 
3 67 5 59 
3 55 62 66 
3 62 7 66 
3 55 66 72 
3 56 63 73 
3 63 56 68 
3 72 68 55 
3 68 72 63 
3 23 78 71 
3 76 78 14 
3 70 74 79 
3 74 70 76 
3 57 70 79 
3 69 70 73 
3 75 77 69 
3 77 75 63 
3 12 74 76 
3 69 77 78 
3 77 71 78 
